<?xml version="1.0" encoding="UTF-8"?>
<svg id="Layer_1" data-name="Layer 1" xmlns="http://www.w3.org/2000/svg" viewBox="0 0 41.36 64">
  <defs>
    <style>
      .cls-1 {
        stroke: #70acde;
      }

      .cls-1, .cls-2 {
        fill: none;
        stroke-miterlimit: 10;
        stroke-width: 2px;
      }

      .cls-3 {
        fill: #70abde;
        stroke-width: 0px;
      }

      .cls-2 {
        stroke: #70abde;
      }
    </style>
  </defs>
  <path class="cls-1" d="m20.68,1.18C3.46,1.18,1.65,19.18,1.65,19.18c-.24,8.49,4.58,13.67,8.61,16.62,4.03,2.95,3.31,9.21,3.31,9.21h14.21s-.72-6.26,3.31-9.21c4.03-2.95,8.85-8.13,8.61-16.62,0,0-1.8-18.01-19.03-18.01Z"/>
  <path class="cls-3" d="m22.43,49.56h7.23v-2.01H11.71v2.01h7.23s.56.36.56.96-.4.92-.68.92h-7.11v2.09h17.95v-2.09h-7.11c-.28,0-.68-.32-.68-.92s.56-.96.56-.96Z"/>
  <path class="cls-3" d="m20.68,55.51h-8.97s.64,2.05,2.65,2.05h12.65c2.01,0,2.65-2.05,2.65-2.05h-8.97Z"/>
  <path class="cls-3" d="m20.68,59.48h-4.96v1.53s.18,2.49,2.48,2.49h4.96c2.3,0,2.48-2.49,2.48-2.49v-1.53h-4.96Z"/>
  <polygon class="cls-2" points="24.78 21.83 20.68 19.67 16.58 21.83 12.73 19.67 18.39 45.02 22.97 45.02 28.63 19.67 24.78 21.83"/>
  <circle class="cls-2" cx="28.63" cy="16.89" r="2.3"/>
  <circle class="cls-2" cx="12.73" cy="16.89" r="2.3"/>
</svg>