<?xml version="1.0" encoding="UTF-8"?>
<svg id="Layer_1" data-name="Layer 1" xmlns="http://www.w3.org/2000/svg" viewBox="0 0 64 64">
  <defs>
    <style>
      .cls-1 {
        fill: #007bff;
      }
    </style>
  </defs>
  <path class="cls-1" d="m32.28,6.77c-14.08,0-25.49,11.41-25.49,25.49s11.41,25.49,25.49,25.49,25.49-11.41,25.49-25.49S46.36,6.77,32.28,6.77Zm0,40.65c-8.37,0-15.16-6.79-15.16-15.16s6.79-15.16,15.16-15.16,15.16,6.79,15.16,15.16-6.79,15.16-15.16,15.16Z"/>
  <rect class="cls-1" x="25.38" y=".02" width="13.8" height="12.46" rx="2" ry="2"/>
  <rect class="cls-1" x="25.38" y="51.53" width="13.8" height="12.46" rx="2" ry="2"/>
  <rect class="cls-1" x="50.87" y="26.02" width="13.8" height="12.46" rx="2" ry="2" transform="translate(90.02 -25.52) rotate(90)"/>
  <rect class="cls-1" x="-.11" y="26.03" width="13.8" height="12.46" rx="2" ry="2" transform="translate(39.05 25.47) rotate(90)"/>
  <rect class="cls-1" x="43.59" y="7.82" width="13.8" height="12.46" rx="2" ry="2" transform="translate(24.72 -31.59) rotate(45)"/>
  <rect class="cls-1" x="7.17" y="44.25" width="13.8" height="12.46" rx="2" ry="2" transform="translate(39.81 4.84) rotate(45)"/>
  <rect class="cls-1" x="43.23" y="44.24" width="13.8" height="12.46" rx="2" ry="2" transform="translate(121.26 50.7) rotate(135)"/>
  <rect class="cls-1" x="7.17" y="8.19" width="13.8" height="12.46" rx="2" ry="2" transform="translate(34.21 14.67) rotate(135)"/>
</svg>